<svg xmlns="http://www.w3.org/2000/svg" xmlns:xlink="http://www.w3.org/1999/xlink" width="174.56" height="118.956" viewBox="0 0 174.56 118.956">
  <defs>
    <linearGradient id="linear-gradient" x1="0.5" y1="1" x2="0.5" gradientUnits="objectBoundingBox">
      <stop offset="0" stop-color="gray" stop-opacity="0.251"/>
      <stop offset="0.535" stop-color="gray" stop-opacity="0.122"/>
      <stop offset="1" stop-color="gray" stop-opacity="0.102"/>
    </linearGradient>
  </defs>
  <g id="Group_109" data-name="Group 109" transform="translate(-1017.148 91.596)">
    <path id="Path_163" data-name="Path 163" d="M227.573,613.251c-1.255,4.779-5.653,7.766-5.653,7.766s-2.363-4.762-1.108-9.542,5.653-7.766,5.653-7.766S228.828,608.471,227.573,613.251Z" transform="translate(815.781 -608.207)" fill="#3f3d56"/>
    <path id="Path_164" data-name="Path 164" d="M231.677,633.826c-3.515,3.473-3.909,8.775-3.909,8.775s5.306-.329,8.821-3.8,3.908-8.775,3.908-8.775S235.192,630.353,231.677,633.826Z" transform="translate(809.772 -629.793)" fill="#f0f0f0"/>
    <rect id="Rectangle_67" data-name="Rectangle 67" width="19.212" height="8.175" rx="4.088" transform="translate(1029.377 11.411)" fill="#f0f0f0"/>
    <g id="Group_106" data-name="Group 106" transform="translate(1163.332 3.243)" opacity="0.7">
      <path id="Path_165" data-name="Path 165" d="M942.533,649.731v-2.946H927.8v13.624a2.872,2.872,0,0,0,2.872,2.872h8.985a2.872,2.872,0,0,0,2.872-2.872v-3.02a3.83,3.83,0,0,0,0-7.659Zm0,6.186V651.2a2.357,2.357,0,0,1,0,4.713Z" transform="translate(-927.805 -646.785)" fill="url(#linear-gradient)"/>
    </g>
    <path id="Path_166" data-name="Path 166" d="M991.178,665.744a3.5,3.5,0,1,0,3.5,3.5,3.5,3.5,0,0,0-3.5-3.5Zm0,5.648a2.152,2.152,0,1,1,2.152-2.152,2.152,2.152,0,0,1-2.152,2.152Z" transform="translate(186.41 -659.094)" fill="#6c63ff"/>
    <path id="Path_167" data-name="Path 167" d="M991.178,665.744a3.5,3.5,0,1,0,3.5,3.5,3.5,3.5,0,0,0-3.5-3.5Zm0,5.648a2.152,2.152,0,1,1,2.152-2.152,2.152,2.152,0,0,1-2.152,2.152Z" transform="translate(186.41 -659.094)" fill="#f0f0f0" opacity="0.1"/>
    <path id="Path_168" data-name="Path 168" d="M818.016,531.776h13.448v13.31a1.752,1.752,0,0,1-1.752,1.752h-9.944a1.752,1.752,0,0,1-1.752-1.752Z" transform="translate(346.123 -527.816)" fill="#f0f0f0"/>
    <rect id="Rectangle_68" data-name="Rectangle 68" width="174.56" height="5.917" transform="translate(1017.148 19.022)" fill="#e0e0e0"/>
    <g id="Group_107" data-name="Group 107" transform="translate(1072.924 -91.596)" opacity="0.7">
      <path id="Path_169" data-name="Path 169" d="M483.719,190.026c-1.871-6.791-12.477-11.75-20.458-12.849,0-.05,0-.1,0-.15v-5.813l.026-.009v-.22a19.935,19.935,0,0,0,12.041-12.62,21.55,21.55,0,0,0,1.285-2.77c.852-.31,1.5-1.715,1.5-3.4a5.945,5.945,0,0,0-.24-1.706,21.832,21.832,0,0,0,.16-2.591,21.6,21.6,0,0,0-7.133-16.061,4.212,4.212,0,0,0,.067-1.056c-.18-2.79-3.161-4.686-5.954-4.812a5.894,5.894,0,0,0,.994-6.224c-1.781,2.595-5.437,2.87-8.584,2.891A2.575,2.575,0,0,0,458.6,119c-3.289,4.409-9.7,5.225-13.613,9.091a11.475,11.475,0,0,0-2.117,2.887,21.606,21.606,0,0,0-8.144,16.915,21.841,21.841,0,0,0,.157,2.568,5.925,5.925,0,0,0-.248,1.73c0,1.7.65,3.105,1.507,3.407a21.532,21.532,0,0,0,1.291,2.779,19.931,19.931,0,0,0,11.957,12.576v6.074c0,.047,0,.093,0,.139-8.011,1.081-18.7,6.079-20.556,12.924-1.6,5.912-3.311,12.4-4.161,16.216,7.29,5.122,22.586,8.13,32.172,8.13,9.108,0,23.995-2.715,31.07-7.379C487.154,202.868,485.39,196.091,483.719,190.026Z" transform="translate(-424.678 -119)" fill="url(#linear-gradient)"/>
    </g>
    <path id="Path_170" data-name="Path 170" d="M461.931,475.63c8.786,0,23.147-2.619,29.972-7.118-.739-4.04-2.44-10.578-4.052-16.429-2.053-7.451-15.009-12.617-22.738-12.617h-7.448c-7.753,0-20.728,5.2-22.755,12.679-1.545,5.7-3.194,11.966-4.014,15.643C437.928,472.728,452.684,475.63,461.931,475.63Z" transform="translate(643.146 -473.476)" fill="#f0f0f0"/>
    <circle id="Ellipse_30" data-name="Ellipse 30" cx="20.887" cy="20.887" r="20.887" transform="translate(1083.737 -82.924)" fill="#72351c"/>
    <path id="Path_171" data-name="Path 171" d="M449.291,261.311h13.383v10.707a6.692,6.692,0,0,1-6.692,6.692h0a6.692,6.692,0,0,1-6.692-6.692V261.311Z" transform="translate(648.591 -305.951)" opacity="0.1"/>
    <path id="Path_172" data-name="Path 172" d="M451.211,258.553h9.544a1.92,1.92,0,0,1,1.92,1.92v8.787a6.692,6.692,0,0,1-6.692,6.692h0a6.692,6.692,0,0,1-6.692-6.692v-8.787A1.92,1.92,0,0,1,451.211,258.553Z" transform="translate(648.591 -303.689)" fill="#fda57d"/>
    <path id="Path_173" data-name="Path 173" d="M563.709,401.1a19.261,19.261,0,0,0,13.383.037v-1.644H563.709Z" transform="translate(534.198 -440.685)" opacity="0.1"/>
    <circle id="Ellipse_31" data-name="Ellipse 31" cx="19.183" cy="19.183" r="19.183" transform="translate(1085.441 -77.056)" fill="#fda57d"/>
    <path id="Path_174" data-name="Path 174" d="M525.046,187.532s8.084,16.41,30.889,6.878l-5.309-8.326-9.412-3.379Z" transform="translate(565.914 -262.854)" opacity="0.1"/>
    <path id="Path_175" data-name="Path 175" d="M525.046,186.189s8.084,16.41,30.889,6.878l-5.309-8.326-9.412-3.379Z" transform="translate(565.914 -261.752)" fill="#72351c"/>
    <path id="Path_176" data-name="Path 176" d="M522.819,141.621a11.081,11.081,0,0,1,2.747-4.468c3.774-3.73,9.959-4.517,13.132-8.77a2.484,2.484,0,0,1-1.137,3.5c3.036-.02,6.563-.286,8.281-2.789a5.686,5.686,0,0,1-.959,6c2.694.122,5.569,1.951,5.743,4.642a5.36,5.36,0,0,1-2.482,4.519,13.8,13.8,0,0,1-5.011,1.887C538.01,147.279,519.477,152.013,522.819,141.621Z" transform="translate(568.069 -218.293)" fill="#72351c"/>
    <ellipse id="Ellipse_32" data-name="Ellipse 32" cx="1.784" cy="3.346" rx="1.784" ry="3.346" transform="translate(1083.649 -61.238)" fill="#fda57d"/>
    <ellipse id="Ellipse_33" data-name="Ellipse 33" cx="1.784" cy="3.346" rx="1.784" ry="3.346" transform="translate(1122.019 -61.238)" fill="#fda57d"/>
    <g id="Group_108" data-name="Group 108" transform="translate(1067.311 -23.726)" opacity="0.7">
      <rect id="Rectangle_69" data-name="Rectangle 69" width="74.235" height="42.748" rx="14.5" fill="url(#linear-gradient)"/>
    </g>
    <rect id="Rectangle_70" data-name="Rectangle 70" width="71.545" height="41.959" rx="20.979" transform="translate(1068.655 -22.937)" fill="#535461"/>
    <circle id="Ellipse_34" data-name="Ellipse 34" cx="2.421" cy="2.421" r="2.421" transform="translate(1102.007 -4.378)" fill="#fff"/>
    <rect id="Rectangle_71" data-name="Rectangle 71" width="159.767" height="2.421" transform="translate(1024.545 24.939)" fill="#e0e0e0"/>
    <rect id="Rectangle_72" data-name="Rectangle 72" width="159.767" height="0.807" transform="translate(1024.545 24.939)" opacity="0.1"/>
    <path id="Path_178" data-name="Path 178" d="M981.693,650.776v12.44a2.622,2.622,0,0,1-2.622,2.622h1.345a2.623,2.623,0,0,0,2.622-2.622v-12.44Z" transform="translate(193.473 -646.816)" opacity="0.1"/>
    <path id="Path_179" data-name="Path 179" d="M944.122,593.407a.785.785,0,0,0-.594.3c-.176.32.143.68.435.9a5.786,5.786,0,0,1,1.473,1.371,1.719,1.719,0,0,1,.081,1.9c-.523.709-1.77.862-1.891,1.734-.078.56.407,1.038.9,1.319,1.211.694,2.773.879,3.65,1.965a2.83,2.83,0,0,1,1.984-1.362c.809-.184,1.65-.171,2.471-.3a.855.855,0,0,0,.682-.362c.229-.465-.424-1.024-.2-1.491.172-.356.676-.328,1.045-.47a1.361,1.361,0,0,0,.677-1.624,3.058,3.058,0,0,0-1.157-1.5,12.956,12.956,0,0,0-4.659-2.154,11.944,11.944,0,0,0-2.476-.573A12.382,12.382,0,0,0,944.122,593.407Z" transform="translate(222.671 -599.474)" fill="#eee"/>
  </g>
</svg>
