<svg xmlns="http://www.w3.org/2000/svg" xmlns:xlink="http://www.w3.org/1999/xlink" width="252.669" height="150.184" viewBox="0 0 252.669 150.184">
  <defs>
    <linearGradient id="linear-gradient" x1="0.538" y1="0.919" x2="0.433" y2="0.181" gradientUnits="objectBoundingBox">
      <stop offset="0" stop-color="#7971ea"/>
      <stop offset="1" stop-color="#9b95ee"/>
    </linearGradient>
    <linearGradient id="linear-gradient-2" y1="0.499" x2="1" y2="0.499" gradientUnits="objectBoundingBox">
      <stop offset="0" stop-color="#3f2323"/>
      <stop offset="1" stop-color="#5e3434"/>
    </linearGradient>
  </defs>
  <g id="illustration" transform="translate(-5.753 -0.002)">
    <g id="Layer_2" data-name="Layer 2">
      <g id="OBJECTS">
        <path id="Path_163" data-name="Path 163" d="M257,107.93l-.21,1.18c-5,28.28-19.75,40.71-19.75,40.71H16.15S2.64,125,8.58,103.32c.09-.33.18-.66.28-1C12.77,89.44,23.8,77.82,49,73.45c5.42-.94,10.41-1.84,15-2.7l1.91-.37c16-3.06,27.14-5.79,35.62-8.91h0l1.83-.7C120.61,54,126.5,45.18,141.94,27.28q1.8-2.09,3.84-4.09c.3-.3.6-.59.91-.87A85.4,85.4,0,0,1,178,3.62l1-.32c15.27-4.84,31.86-4.91,45.89,3.56.53.32,1.06.65,1.59,1,11.11,7.33,20.47,20.28,26.06,40.79C259.18,73.18,259.46,92.77,257,107.93Z" fill="#e4ebf7"/>
        <path id="Path_164" data-name="Path 164" d="M234.71,53.69c-3.18,16-14.11,28.92-32.48,38.33-36.1,18.47-50.47,41.58-56.15,57.8H145v-.09c5.69-16.41,20.15-39.89,56.71-58.6,18.09-9.26,28.84-21.92,32-37.63,3.21-16.2-2.23-33.19-8.88-46.64.53.32,1.06.65,1.59,1C232.84,21.22,237.85,37.82,234.71,53.69Z" fill="#fff"/>
        <path id="Path_165" data-name="Path 165" d="M257,107.93l-.21,1.18a397.879,397.879,0,0,1-50.31,18.7c-16.54,5-28.15,12.41-34.65,22h-1.2c6.55-10.07,18.47-17.77,35.56-23A396.219,396.219,0,0,0,257,107.93Z" fill="#fff"/>
        <path id="Path_166" data-name="Path 166" d="M180.3,19.67c0,17.43-5.13,41.16-29.42,55.29C140.59,81,129,83.2,117.45,83.2c-15.72,0-31.47-4.15-44.13-8.78C70.11,73.25,67,72,64,70.75l1.91-.37c25,10.31,58.86,18.61,84.46,3.72,23.88-13.89,28.91-37.27,28.92-54.43a103.479,103.479,0,0,0-1.3-16l1-.32a104.758,104.758,0,0,1,1.31,16.32Z" fill="#fff"/>
        <path id="Path_167" data-name="Path 167" d="M144.16,53.44c-4.87,6.43-13.49,9.65-25.75,9.65a99.529,99.529,0,0,1-16.86-1.62l1.83-.7c20.11,3.23,33.53.58,40-7.93,5.78-7.61,5.15-18.94,2.42-29.65.3-.3.6-.59.91-.87C149.6,33.4,150.33,45.31,144.16,53.44Z" fill="#fff"/>
        <path id="Path_168" data-name="Path 168" d="M127.07,149.82h-1c-2.12-8.37-6.05-17.41-13.22-24.75-11.75-12-29.59-17.06-53-14.93-21.45,1.94-38.61-.35-51.22-6.82.09-.33.18-.66.28-1,12.46,6.45,29.49,8.73,50.85,6.8,23.76-2.15,41.86,3,53.83,15.24C120.92,131.94,124.93,141.24,127.07,149.82Z" fill="#fff"/>
        <path id="Path_169" data-name="Path 169" d="M41.13,140.4s5.75-12.88-7.5-22.88-16.25-17.25-16.25-17.25S12.91,123.75,21,134.9V151H40.62Z" transform="translate(0 -1)" fill="#928ce4"/>
        <path id="Path_170" data-name="Path 170" d="M29.27,150.15s-.65-9,8.31-15S46.42,123,46.42,123s6.88,17.24-1.82,27.13Z" fill="#7971ea"/>
        <path id="Path_171" data-name="Path 171" d="M31.26,150.15s1.39-12.13-9.93-18.63S7.64,116.65,7.64,116.65s-6.25,21.12,4,33.5Z" fill="#9690ed"/>
        <path id="Path_172" data-name="Path 172" d="M101.38,125.9a81,81,0,0,1-13.61,16.66v6.05h13.52a112.161,112.161,0,0,0,12.83-8.84S116.93,121.06,101.38,125.9Z" fill="#f49187"/>
        <path id="Path_173" data-name="Path 173" d="M186.38,137.4s-.63,12-3.63,12.75-15.29-10.38-15.29-10.38l-1.4-5.31,9.11-6.65S186,131.15,186.38,137.4Z" fill="#f49187"/>
        <path id="Path_174" data-name="Path 174" d="M186.38,137.4c-2.88-5.5-20.63-1.5-20.63-1.5l12.63,12.71H121.62c1.88-6.54.76-22.46.76-22.46v.35a17.76,17.76,0,0,1-4.21,9.77c-.24,3.26-4,3.5-4,3.5a22.1,22.1,0,0,0-1.93-7.21c-3.69-7.63-10.81-6.66-10.81-6.66-.76-4,3.5-5,3.5-5s5.24-30.5,12.87-36.5,20.07-9,20.07-9l12.81-.87s25.12,5,30.12,13.62,4.13,41.25,4.13,41.25C188.88,132.65,186.38,137.4,186.38,137.4Z" fill="url(#linear-gradient)"/>
        <path id="Path_175" data-name="Path 175" d="M165.75,135.9s2.13-18.5-4.75-34.63c0,0,1.13,24.5-8.87,31.38s-27,5.5-31.25,17.5l37.5-.34Z" fill="#6d63f2" opacity="0.5"/>
        <path id="Path_176" data-name="Path 176" d="M122.33,126.5a17.76,17.76,0,0,1-4.21,9.77c-.24,3.26-4,3.5-4,3.5a22.1,22.1,0,0,0-1.93-7.21,21.17,21.17,0,0,0,5.56-9.24c2.65-8.76,1-18.28.84-19a161.069,161.069,0,0,1,3.74,22.18Z" fill="#756cee" opacity="0.5"/>
        <path id="Path_177" data-name="Path 177" d="M149.5,142.27s14.13-9.87,26.13-5.87,11,12.25,7.12,13.75H152.83Z" fill="#feb19e"/>
        <path id="Path_178" data-name="Path 178" d="M153.27,75s-2.94,16.5-11.69,16.59c-7.64.07-5.87-9.95-5.3-12.5.08-.38.14-.59.14-.59l-3.17-12.1,16.83-8.91.34,1.85h0Z" fill="#feb19e"/>
        <path id="Path_179" data-name="Path 179" d="M136.28,79.07c.08-.38.14-.59.14-.59L133.25,66.4l16.83-8.91.34,1.85h0C152.63,79.07,136.59,79.07,136.28,79.07Z" fill="#ff856a"/>
        <path id="Path_180" data-name="Path 180" d="M152.31,51.59a29.46,29.46,0,0,0,2.75-9.82c.5-5.12-.93-6.31-3.06-6.31,0,0-1.12-5.81-3.81-7.81s-13.63.94-17.81,3.44-7.25-4.39-9.19-4.1-2.31,5.6-.81,8c0,0-3.5-1.94-4.07-3.94s-4.56,1.63-3.12,9.07,4.75,8.37,4.75,8.37.62,7.88,7.06,8.75,23.44-.62,23.44-.62Z" fill="url(#linear-gradient-2)"/>
        <path id="Path_181" data-name="Path 181" d="M122.38,48.77s3.12,21.38,11,24.13,14.45-5.66,15.45-7.91,1.42-7,1.42-7,2.69.62,3-4.13-3.81-7.56-4.81.62c0,0-3.86-2.12-2.69-9.37a16.94,16.94,0,0,1-10.58,4.16c-6.17,0-.84-4.16-.84-4.16a16.91,16.91,0,0,1-11.95,3.66Z" fill="#feb19e"/>
        <rect id="Rectangle_67" data-name="Rectangle 67" width="51.33" height="2.75" transform="translate(120.25 147.4)" fill="#556072"/>
        <rect id="Rectangle_68" data-name="Rectangle 68" width="15.83" height="2.75" transform="translate(155.75 147.4)" fill="#f5f5f5"/>
        <path id="Path_182" data-name="Path 182" d="M162.92,147.48s-4.54-6.77-11.35-6.66c-5.16.08-5.35,3.33-5.35,3.33a3.08,3.08,0,0,0-3.47,3.33Z" fill="#ffc7ae"/>
        <path id="Path_183" data-name="Path 183" d="M99.08,147.06s.25-3.75-1.41-4.25a3,3,0,0,0-2.92.92s-1.25-5.5-5.92-5.67-13.08,4.59-7.91,9Z" fill="#feb19e"/>
        <path id="Path_184" data-name="Path 184" d="M111.08,148.61a1.54,1.54,0,0,1-1.54,1.54H81.46a1.54,1.54,0,1,1,0-3.08h28.08a1.54,1.54,0,0,1,1.54,1.54Z" fill="#f5f5f5"/>
        <path id="Path_185" data-name="Path 185" d="M102.75,148.61a1.54,1.54,0,0,1-1.54,1.54H81.46a1.54,1.54,0,1,1,0-3.08h19.75A1.54,1.54,0,0,1,102.75,148.61Z" fill="#7971ea"/>
        <path id="Path_186" data-name="Path 186" d="M95.5,144.59l-5-16.27a1.41,1.41,0,0,0-1.71-.95h0a1.42,1.42,0,0,0-1,1.86l6,15.79a1.27,1.27,0,0,0,1.71-.43Z" fill="#525559"/>
        <path id="Path_187" data-name="Path 187" d="M60.44,104.11c.54,3.29-.64,6.21-2.64,6.54s-4.06-2.06-4.6-5.34.64-6.21,2.64-6.54S59.89,100.83,60.44,104.11Z" fill="#fff" stroke="#f230db" stroke-miterlimit="10" stroke-width="1"/>
        <path id="Path_188" data-name="Path 188" d="M90.82,133H37.51a5.72,5.72,0,0,1-5.3-3.61C26,113.84,21.36,98.69,19.49,84.26a5.71,5.71,0,0,1,5.66-6.44h54a5.69,5.69,0,0,1,5.63,4.861c2,13.369,6,27.7,11.38,42.749A5.7,5.7,0,0,1,90.82,133Z" fill="#90c6e0"/>
        <path id="Path_189" data-name="Path 189" d="M88.66,133H37.51a5.72,5.72,0,0,1-5.3-3.61C26,113.84,21.36,98.69,19.49,84.26a5.71,5.71,0,0,1,5.66-6.44H77a5.71,5.71,0,0,1,5.64,4.86c2,13.37,6,27.7,11.37,42.75A5.69,5.69,0,0,1,88.66,133Z" fill="#6d68b8"/>
        <path id="Path_190" data-name="Path 190" d="M86,150.15H65.55a7,7,0,0,1-6.59-4.7L52.83,124H66.09L71,140.69a5.52,5.52,0,0,0,4.32,3.55l7.66,1.2a3.17,3.17,0,0,1,2.6,2.45Z" fill="#7971ea"/>
        <path id="Path_191" data-name="Path 191" d="M75.28,144.24l-1.73-.16a6.5,6.5,0,0,1-5.47-4l-5.26-16h3.26L71,140.69A5.52,5.52,0,0,0,75.28,144.24Z" fill="#90c6e0" opacity="0.35"/>
        <path id="Path_192" data-name="Path 192" d="M60,104.82c.76,3.17-.21,6.12-2.17,6.59s-4.16-1.72-4.92-4.89.22-6.11,2.17-6.58S59.27,101.65,60,104.82Z" fill="#fff"/>
        <path id="Path_193" data-name="Path 193" d="M218,129.73l-2.33-14.5-7.42.92L211,130.56Z" fill="#7971ea"/>
        <path id="Path_194" data-name="Path 194" d="M217.79,128.4l2.56-17.9a1,1,0,0,1,1.17-.85h0a1,1,0,0,1,.83,1.15l-2.85,18.51h1.08l3.82-14.18a1,1,0,0,1,1.25-.74h0a1,1,0,0,1,.75,1.27l-3.57,13.65L219.25,131Z" fill="#7971ea"/>
        <path id="Path_195" data-name="Path 195" d="M225.33,128.4v18.46a3,3,0,0,1-3,3H211.71a3,3,0,0,1-3-3V128.4Z" fill="#7971ea" opacity="0.51"/>
        <rect id="Rectangle_71" data-name="Rectangle 71" width="16.58" height="4.33" transform="translate(208.75 128.4)" fill="#222831"/>
        <circle id="Ellipse_30" data-name="Ellipse 30" cx="23.59" cy="23.59" r="23.59" transform="translate(185.05 14.83)" fill="#70b2dd" opacity="0.35"/>
        <circle id="Ellipse_31" data-name="Ellipse 31" cx="22.2" cy="22.2" r="22.2" transform="matrix(0.897, -0.442, 0.442, 0.897, 178.527, 26.597)" fill="#fff"/>
        <circle id="Ellipse_32" data-name="Ellipse 32" cx="16.33" cy="16.33" r="16.33" transform="translate(189.677 50.416) rotate(-81.41)" fill="#7971ea"/>
        <path id="Path_196" data-name="Path 196" d="M217.45,36h-8V25.09a1.56,1.56,0,0,0-3.11,0V38.81H217.5a1.43,1.43,0,0,0,0-2.85Z" fill="#fff"/>
      </g>
    </g>
  </g>
</svg>
