<svg xmlns="http://www.w3.org/2000/svg" width="48" height="51.162" viewBox="0 0 48 51.162">
  <g id="ui" transform="translate(-2 -0.946)">
    <g id="bg" transform="translate(2.715 0.946)">
      <g id="Group_69" data-name="Group 69">
        <path id="Path_129" data-name="Path 129" d="M16.06,51.73c9.967-2.878,18.3.309,23.108-1.078s14.094-7.062,7.713-29.16S25.994.072,20.71,1.6C-4.03,8.742-1.594,56.829,16.06,51.73Z" transform="translate(-2.477 -0.946)" fill="#dfdcff"/>
      </g>
    </g>
    <g id="color" transform="translate(4.069 4.777)">
      <g id="Group_70" data-name="Group 70" transform="translate(5.056 4.875)">
        <path id="Path_130" data-name="Path 130" d="M37.5,6.75H9.75a3,3,0,0,0-3,3V37.5a3,3,0,0,0,3,3H37.5a3,3,0,0,0,3-3V9.75A3,3,0,0,0,37.5,6.75Z" transform="translate(-6.75 -6.75)" fill="#f3f3f1"/>
      </g>
      <g id="Group_71" data-name="Group 71" transform="translate(5.056 4.875)">
        <path id="Path_131" data-name="Path 131" d="M10.125,37.5V9.75a3,3,0,0,1,3-3H9.75a3,3,0,0,0-3,3V37.5a3,3,0,0,0,3,3h3.375A3,3,0,0,1,10.125,37.5Z" transform="translate(-6.75 -6.75)" fill="#d5dbe1"/>
      </g>
      <g id="Group_72" data-name="Group 72" transform="translate(9.556 9.375)">
        <path id="Path_132" data-name="Path 132" d="M18,16.5H11.25A1.5,1.5,0,0,1,9.75,15V11.25a1.5,1.5,0,0,1,1.5-1.5H18a1.5,1.5,0,0,1,1.5,1.5V15A1.5,1.5,0,0,1,18,16.5Z" transform="translate(-9.75 -9.75)" fill="#7971ea"/>
      </g>
      <g id="Group_73" data-name="Group 73" transform="translate(24.556 27.375)">
        <path id="Path_133" data-name="Path 133" d="M28,28.5H21.25a1.5,1.5,0,0,1-1.5-1.5V23.25a1.5,1.5,0,0,1,1.5-1.5H28a1.5,1.5,0,0,1,1.5,1.5V27A1.5,1.5,0,0,1,28,28.5Z" transform="translate(-19.75 -21.75)" fill="#7971ea"/>
      </g>
      <g id="Group_74" data-name="Group 74" transform="translate(24.556 9.375)">
        <path id="Path_134" data-name="Path 134" d="M28,22.5H21.25a1.5,1.5,0,0,1-1.5-1.5V11.25a1.5,1.5,0,0,1,1.5-1.5H28a1.5,1.5,0,0,1,1.5,1.5V21A1.5,1.5,0,0,1,28,22.5Z" transform="translate(-19.75 -9.75)" fill="#7971ea"/>
      </g>
      <g id="Group_75" data-name="Group 75" transform="translate(9.556 21.375)">
        <path id="Path_135" data-name="Path 135" d="M18,30.5H11.25A1.5,1.5,0,0,1,9.75,29V19.25a1.5,1.5,0,0,1,1.5-1.5H18a1.5,1.5,0,0,1,1.5,1.5V29A1.5,1.5,0,0,1,18,30.5Z" transform="translate(-9.75 -17.75)" fill="#7971ea"/>
      </g>
      <g id="Group_76" data-name="Group 76" transform="translate(9.556 9.375)">
        <path id="Path_136" data-name="Path 136" d="M13.125,15V11.25a1.5,1.5,0,0,1,1.5-1.5H11.25a1.5,1.5,0,0,0-1.5,1.5V15a1.5,1.5,0,0,0,1.5,1.5h3.375A1.5,1.5,0,0,1,13.125,15Z" transform="translate(-9.75 -9.75)" fill="#675eec"/>
      </g>
      <g id="Group_77" data-name="Group 77" transform="translate(24.556 27.375)">
        <path id="Path_137" data-name="Path 137" d="M23.125,27V23.25a1.5,1.5,0,0,1,1.5-1.5H21.25a1.5,1.5,0,0,0-1.5,1.5V27a1.5,1.5,0,0,0,1.5,1.5h3.375A1.5,1.5,0,0,1,23.125,27Z" transform="translate(-19.75 -21.75)" fill="#675eec"/>
      </g>
      <g id="Group_78" data-name="Group 78" transform="translate(24.556 9.375)">
        <path id="Path_138" data-name="Path 138" d="M23.125,21V11.25a1.5,1.5,0,0,1,1.5-1.5H21.25a1.5,1.5,0,0,0-1.5,1.5V21a1.5,1.5,0,0,0,1.5,1.5h3.375A1.5,1.5,0,0,1,23.125,21Z" transform="translate(-19.75 -9.75)" fill="#675eec"/>
      </g>
      <g id="Group_79" data-name="Group 79" transform="translate(9.556 21.375)">
        <path id="Path_139" data-name="Path 139" d="M13.125,29V19.25a1.5,1.5,0,0,1,1.5-1.5H11.25a1.5,1.5,0,0,0-1.5,1.5V29a1.5,1.5,0,0,0,1.5,1.5h3.375A1.5,1.5,0,0,1,13.125,29Z" transform="translate(-9.75 -17.75)" fill="#675eec"/>
      </g>
      <g id="Group_80" data-name="Group 80">
        <path id="Path_140" data-name="Path 140" d="M5.629,8a2.25,2.25,0,1,1,2.25-2.25A2.253,2.253,0,0,1,5.629,8Zm0-3a.75.75,0,1,0,.75.75A.751.751,0,0,0,5.629,5Z" transform="translate(-3.379 -3.5)" fill="#a4afc1"/>
      </g>
    </g>
    <g id="regular" transform="translate(2 8.527)">
      <g id="Group_81" data-name="Group 81" transform="translate(10.5 4.5)">
        <path id="Path_141" data-name="Path 141" d="M18.375,18h-6.75A2.628,2.628,0,0,1,9,15.375v-3.75A2.628,2.628,0,0,1,11.625,9h6.75A2.628,2.628,0,0,1,21,11.625v3.75A2.628,2.628,0,0,1,18.375,18Zm-6.75-6.75a.375.375,0,0,0-.375.375v3.75a.375.375,0,0,0,.375.375h6.75a.375.375,0,0,0,.375-.375v-3.75a.375.375,0,0,0-.375-.375Z" transform="translate(-9 -9)" fill="#222831"/>
      </g>
      <g id="Group_82" data-name="Group 82" transform="translate(25.5 22.5)">
        <path id="Path_142" data-name="Path 142" d="M28.375,30h-6.75A2.628,2.628,0,0,1,19,27.375v-3.75A2.628,2.628,0,0,1,21.625,21h6.75A2.628,2.628,0,0,1,31,23.625v3.75A2.628,2.628,0,0,1,28.375,30Zm-6.75-6.75a.375.375,0,0,0-.375.375v3.75a.375.375,0,0,0,.375.375h6.75a.375.375,0,0,0,.375-.375v-3.75a.375.375,0,0,0-.375-.375Z" transform="translate(-19 -21)" fill="#222831"/>
      </g>
      <g id="Group_83" data-name="Group 83" transform="translate(25.5 4.5)">
        <path id="Path_143" data-name="Path 143" d="M28.375,24h-6.75A2.628,2.628,0,0,1,19,21.375v-9.75A2.628,2.628,0,0,1,21.625,9h6.75A2.628,2.628,0,0,1,31,11.625V15H28.75V11.625a.375.375,0,0,0-.375-.375h-6.75a.375.375,0,0,0-.375.375v9.75a.375.375,0,0,0,.375.375h6.75a.375.375,0,0,0,.375-.375V18H31v3.375A2.628,2.628,0,0,1,28.375,24Z" transform="translate(-19 -9)" fill="#222831"/>
      </g>
      <g id="Group_84" data-name="Group 84" transform="translate(10.5 16.5)">
        <path id="Path_144" data-name="Path 144" d="M18.375,32h-6.75A2.628,2.628,0,0,1,9,29.375v-9.75A2.628,2.628,0,0,1,11.625,17h6.75A2.628,2.628,0,0,1,21,19.625v9.75A2.628,2.628,0,0,1,18.375,32Zm-6.75-12.75a.375.375,0,0,0-.375.375v9.75a.375.375,0,0,0,.375.375h6.75a.375.375,0,0,0,.375-.375v-9.75a.375.375,0,0,0-.375-.375Z" transform="translate(-9 -17)" fill="#222831"/>
      </g>
      <g id="Group_85" data-name="Group 85" transform="translate(6)">
        <path id="Path_145" data-name="Path 145" d="M37.875,42H10.125A4.128,4.128,0,0,1,6,37.875V10.125A4.128,4.128,0,0,1,10.125,6h27.75A4.128,4.128,0,0,1,42,10.125v27.75A4.128,4.128,0,0,1,37.875,42ZM10.125,8.25A1.878,1.878,0,0,0,8.25,10.125v27.75a1.878,1.878,0,0,0,1.875,1.875h27.75a1.878,1.878,0,0,0,1.875-1.875V10.125A1.878,1.878,0,0,0,37.875,8.25Z" transform="translate(-6 -6)" fill="#222831"/>
      </g>
      <g id="Group_86" data-name="Group 86" transform="translate(0 33.75)">
        <path id="Path_146" data-name="Path 146" d="M2,28.5H50v2.25H2Z" transform="translate(-2 -28.5)" fill="#222831"/>
      </g>
    </g>
  </g>
</svg>
