<svg xmlns="http://www.w3.org/2000/svg" width="46.65" height="52.036" viewBox="0 0 46.65 52.036">
  <g id="time" transform="translate(-2.269 -0.453)">
    <g id="bg" transform="translate(2.269 0.453)">
      <g id="Group_87" data-name="Group 87">
        <path id="Path_147" data-name="Path 147" d="M18.79,51.676c9.338-4.239,17.949-2.312,22.449-4.353S54.015,38.4,44.619,17.7,21.131-.271,16.18,1.976C-7,12.5,2.25,59.183,18.79,51.676Z" transform="translate(-2.269 -0.453)" fill="#dfdcff"/>
      </g>
    </g>
    <g id="color" transform="translate(5.577 6.083)">
      <g id="Group_88" data-name="Group 88" transform="translate(3.336 3.707)">
        <circle id="Ellipse_29" data-name="Ellipse 29" cx="16.681" cy="16.681" r="16.681" fill="#f3f3f1"/>
      </g>
      <g id="Group_89" data-name="Group 89" transform="translate(3.336 3.707)">
        <path id="Path_148" data-name="Path 148" d="M10.457,23.431A16.68,16.68,0,0,1,25.284,6.858a17,17,0,0,0-1.853-.108,16.681,16.681,0,0,0,0,33.362A17,17,0,0,0,25.284,40,16.68,16.68,0,0,1,10.457,23.431Z" transform="translate(-6.75 -6.75)" fill="#d5dbe1"/>
      </g>
      <g id="Group_92" data-name="Group 92" transform="translate(38.742 15.804)">
        <g id="Group_90" data-name="Group 90" transform="translate(0.259 6.018)">
          <path id="Path_149" data-name="Path 149" d="M0,0H1.483V2.965H0Z" transform="translate(0 1.048) rotate(-45)" fill="#a4afc1"/>
        </g>
        <g id="Group_91" data-name="Group 91">
          <path id="Path_150" data-name="Path 150" d="M0,0H2.965V1.483H0Z" transform="translate(0 2.097) rotate(-45)" fill="#a4afc1"/>
        </g>
      </g>
      <g id="Group_93" data-name="Group 93">
        <path id="Path_151" data-name="Path 151" d="M6.724,8.7A2.224,2.224,0,1,1,8.948,6.474,2.227,2.227,0,0,1,6.724,8.7Zm0-2.965a.741.741,0,1,0,.741.741A.743.743,0,0,0,6.724,5.733Z" transform="translate(-4.5 -4.25)" fill="#a4afc1"/>
      </g>
    </g>
    <g id="regular" transform="translate(7.801 8.678)">
      <g id="Group_94" data-name="Group 94" transform="translate(15.939 7.043)">
        <path id="Path_152" data-name="Path 152" d="M29.353,23.353H17.862a1.112,1.112,0,0,1-1.112-1.112V10.75h2.224V21.129H29.353Z" transform="translate(-16.75 -10.75)" fill="#7971ea"/>
      </g>
      <g id="Group_95" data-name="Group 95">
        <path id="Path_153" data-name="Path 153" d="M23.793,41.586A17.793,17.793,0,1,1,41.586,23.793,17.813,17.813,0,0,1,23.793,41.586Zm0-33.362A15.569,15.569,0,1,0,39.362,23.793,15.586,15.586,0,0,0,23.793,8.224Z" transform="translate(-6 -6)" fill="#222831"/>
      </g>
    </g>
  </g>
</svg>
